<svg width="14" height="15" fill="none" xmlns="http://www.w3.org/2000/svg"><g clip-path="url(#clip0)"><path d="M12.815 11.008l-1.838-2.093c-.657-.747-1.773-.448-2.036.524-.197.672-.853 1.046-1.444.897-1.313-.374-3.086-2.318-3.414-3.888-.197-.673.197-1.42.788-1.645.853-.299 1.116-1.57.46-2.317L3.49.392c-.523-.522-1.31-.522-1.77 0L.47 1.812C-.776 3.309.603 7.27 3.69 10.785c3.086 3.514 6.566 5.159 7.879 3.663l1.247-1.42c.46-.598.46-1.495 0-2.018z" fill="#E0CA3C"/></g><defs><clipPath id="clip0"><path fill="#fff" d="M0 0h13.174v15H0z"/></clipPath></defs></svg>